<svg width="140" height="46" viewBox="0 0 140 46" fill="none" xmlns="http://www.w3.org/2000/svg">
<path d="M56.8652 33.0009V14.0918H64.1038C65.4703 14.0918 66.6059 14.3072 67.5108 14.7381C68.4217 15.1628 69.1019 15.7445 69.5512 16.4831C70.0067 17.2218 70.2345 18.0589 70.2345 18.9945C70.2345 19.7639 70.0867 20.4225 69.7913 20.9704C69.4958 21.512 69.0988 21.9521 68.6002 22.2907C68.1017 22.6292 67.5446 22.8723 66.9291 23.0201V23.2047C67.6 23.2417 68.2432 23.4479 68.8588 23.8233C69.4805 24.1927 69.9883 24.7159 70.3822 25.3929C70.7761 26.07 70.9731 26.8887 70.9731 27.8489C70.9731 28.8276 70.7361 29.7078 70.2622 30.4895C69.7882 31.2651 69.0742 31.8776 68.1201 32.3269C67.1661 32.7762 65.9658 33.0009 64.5193 33.0009H56.8652ZM60.2906 30.1387H63.9745C65.2179 30.1387 66.1135 29.9017 66.6613 29.4277C67.2153 28.9476 67.4923 28.3321 67.4923 27.5812C67.4923 27.021 67.3538 26.5163 67.0768 26.067C66.7998 25.6115 66.4059 25.2545 65.895 24.9959C65.3841 24.7313 64.7747 24.5989 64.0669 24.5989H60.2906V30.1387ZM60.2906 22.1337H63.6791C64.27 22.1337 64.8024 22.026 65.2764 21.8106C65.7503 21.589 66.1227 21.2781 66.3936 20.878C66.6706 20.4718 66.809 19.9917 66.809 19.4377C66.809 18.7052 66.5505 18.102 66.0335 17.628C65.5226 17.1541 64.7624 16.9171 63.7529 16.9171H60.2906V22.1337ZM77.1476 24.6912V33.0009H73.8053V18.8191H76.9999V21.2289H77.1661C77.4923 20.4348 78.0125 19.8039 78.7265 19.3361C79.4467 18.8683 80.3361 18.6344 81.3948 18.6344C82.3735 18.6344 83.226 18.8437 83.9523 19.2623C84.6848 19.6808 85.2511 20.2871 85.6512 21.0812C86.0575 21.8752 86.2575 22.8385 86.2513 23.9711V33.0009H82.909V24.4881C82.909 23.5402 82.6628 22.7985 82.1704 22.263C81.6841 21.7275 81.0101 21.4597 80.1484 21.4597C79.5636 21.4597 79.0435 21.589 78.588 21.8475C78.1387 22.0999 77.7847 22.4661 77.5262 22.9462C77.2738 23.4263 77.1476 24.008 77.1476 24.6912ZM89.6491 33.0009V18.8191H92.9914V33.0009H89.6491ZM91.3295 16.8063C90.8001 16.8063 90.3446 16.6309 89.963 16.28C89.5814 15.923 89.3905 15.4952 89.3905 14.9966C89.3905 14.4919 89.5814 14.0641 89.963 13.7133C90.3446 13.3562 90.8001 13.1777 91.3295 13.1777C91.865 13.1777 92.3205 13.3562 92.6959 13.7133C93.0776 14.0641 93.2684 14.4919 93.2684 14.9966C93.2684 15.4952 93.0776 15.923 92.6959 16.28C92.3205 16.6309 91.865 16.8063 91.3295 16.8063ZM102.614 33.2779C101.199 33.2779 99.9831 32.967 98.9674 32.3454C97.958 31.7237 97.1793 30.865 96.6315 29.7694C96.0898 28.6676 95.819 27.3996 95.819 25.9654C95.819 24.525 96.096 23.254 96.65 22.1522C97.2039 21.0442 97.9857 20.1825 98.9951 19.567C100.011 18.9453 101.211 18.6344 102.596 18.6344C103.747 18.6344 104.766 18.8468 105.652 19.2715C106.545 19.6901 107.255 20.284 107.785 21.0535C108.314 21.8167 108.616 22.7092 108.69 23.731H105.495C105.366 23.0478 105.058 22.4784 104.572 22.0229C104.092 21.5613 103.448 21.3304 102.642 21.3304C101.959 21.3304 101.359 21.5151 100.842 21.8844C100.325 22.2476 99.9215 22.7708 99.6322 23.454C99.3491 24.1373 99.2075 24.9559 99.2075 25.91C99.2075 26.8764 99.3491 27.7073 99.6322 28.4029C99.9153 29.0923 100.312 29.6247 100.823 30.0002C101.34 30.3695 101.946 30.5542 102.642 30.5542C103.134 30.5542 103.575 30.4618 103.962 30.2772C104.356 30.0864 104.686 29.8125 104.95 29.4554C105.215 29.0984 105.397 28.6645 105.495 28.1536H108.69C108.61 29.1569 108.314 30.0464 107.803 30.8219C107.292 31.5913 106.597 32.1946 105.717 32.6316C104.836 33.0625 103.802 33.2779 102.614 33.2779ZM113.493 33.204C112.933 33.204 112.453 33.0071 112.053 32.6131C111.653 32.2192 111.456 31.7391 111.462 31.1728C111.456 30.6188 111.653 30.1448 112.053 29.7509C112.453 29.357 112.933 29.16 113.493 29.16C114.035 29.16 114.506 29.357 114.906 29.7509C115.312 30.1448 115.518 30.6188 115.524 31.1728C115.518 31.5482 115.42 31.8899 115.229 32.1976C115.044 32.5054 114.798 32.7516 114.49 32.9363C114.189 33.1148 113.856 33.204 113.493 33.204ZM118.975 33.0009V18.8191H122.317V33.0009H118.975ZM120.656 16.8063C120.126 16.8063 119.671 16.6309 119.289 16.28C118.907 15.923 118.717 15.4952 118.717 14.9966C118.717 14.4919 118.907 14.0641 119.289 13.7133C119.671 13.3562 120.126 13.1777 120.656 13.1777C121.191 13.1777 121.647 13.3562 122.022 13.7133C122.404 14.0641 122.594 14.4919 122.594 14.9966C122.594 15.4952 122.404 15.923 122.022 16.28C121.647 16.6309 121.191 16.8063 120.656 16.8063ZM131.941 33.2779C130.556 33.2779 129.355 32.9732 128.34 32.3638C127.324 31.7545 126.536 30.9019 125.976 29.8063C125.422 28.7107 125.145 27.4304 125.145 25.9654C125.145 24.5004 125.422 23.217 125.976 22.1152C126.536 21.0134 127.324 20.1579 128.34 19.5485C129.355 18.9391 130.556 18.6344 131.941 18.6344C133.325 18.6344 134.526 18.9391 135.541 19.5485C136.557 20.1579 137.342 21.0134 137.896 22.1152C138.456 23.217 138.736 24.5004 138.736 25.9654C138.736 27.4304 138.456 28.7107 137.896 29.8063C137.342 30.9019 136.557 31.7545 135.541 32.3638C134.526 32.9732 133.325 33.2779 131.941 33.2779ZM131.959 30.6003C132.71 30.6003 133.338 30.3941 133.843 29.9817C134.347 29.5632 134.723 29.003 134.969 28.3013C135.221 27.5996 135.347 26.8179 135.347 25.9562C135.347 25.0883 135.221 24.3035 134.969 23.6018C134.723 22.8939 134.347 22.3307 133.843 21.9121C133.338 21.4936 132.71 21.2843 131.959 21.2843C131.19 21.2843 130.549 21.4936 130.039 21.9121C129.534 22.3307 129.155 22.8939 128.903 23.6018C128.657 24.3035 128.534 25.0883 128.534 25.9562C128.534 26.8179 128.657 27.5996 128.903 28.3013C129.155 29.003 129.534 29.5632 130.039 29.9817C130.549 30.3941 131.19 30.6003 131.959 30.6003Z" fill="#292930"/>
<path fill-rule="evenodd" clip-rule="evenodd" d="M15.432 2.78014C18.4849 1.05506 22.2183 1.05506 25.2712 2.78014L35.6228 8.62947C38.762 10.4033 40.7032 13.7298 40.7032 17.3356V28.6648C40.7032 32.2705 38.762 35.5971 35.6228 37.371L25.2712 43.2203C22.2183 44.9454 18.4849 44.9454 15.432 43.2203L5.08043 37.371C1.94118 35.5971 0 32.2706 0 28.6648V17.3356C0 13.7298 1.94118 10.4033 5.08043 8.62947L15.432 2.78014Z" fill="#0084FF"/>
<path fill-rule="evenodd" clip-rule="evenodd" d="M18.2344 22.2193C19.5371 21.4775 21.1436 21.4654 22.4578 22.1875L30.4344 26.5703C31.1585 26.9682 31.1585 27.9884 30.4344 28.3862L22.4578 32.7691C21.1436 33.4912 19.5371 33.4791 18.2344 32.7373L10.5796 28.3783C9.87449 27.9768 9.87449 26.9798 10.5796 26.5783L18.2344 22.2193Z" fill="white"/>
<g opacity="0.900359">
<path fill-rule="evenodd" clip-rule="evenodd" d="M18.2344 22.1099C19.5371 21.3681 21.1436 21.356 22.4578 22.0781L30.4344 26.4609C31.1585 26.8587 31.1585 27.8789 30.4344 28.2768L22.4578 32.6596C21.1436 33.3817 19.5371 33.3696 18.2344 32.6278L10.5796 28.2688C9.87449 27.8673 9.87449 26.8704 10.5796 26.4688L18.2344 22.1099Z" fill="url(#paint0_linear_455_12)"/>
</g>
<path fill-rule="evenodd" clip-rule="evenodd" d="M18.2344 18.2076C19.5371 17.4658 21.1436 17.4537 22.4578 18.1758L30.4344 22.5586C31.1585 22.9565 31.1585 23.9767 30.4344 24.3745L22.4578 28.7573C21.1436 29.4794 19.5371 29.4673 18.2344 28.7255L10.5796 24.3666C9.87449 23.965 9.87449 22.9681 10.5796 22.5666L18.2344 18.2076Z" fill="white"/>
<path fill-rule="evenodd" clip-rule="evenodd" d="M18.2344 18.0748C19.5371 17.333 21.1436 17.3209 22.4578 18.043L30.4344 22.4258C31.1585 22.8237 31.1585 23.8439 30.4344 24.2418L22.4578 28.6246C21.1436 29.3467 19.5371 29.3346 18.2344 28.5928L10.5796 24.2338C9.87449 23.8323 9.87449 22.8353 10.5796 22.4338L18.2344 18.0748Z" fill="url(#paint1_linear_455_12)"/>
<path fill-rule="evenodd" clip-rule="evenodd" d="M18.2344 14.0396C19.5371 13.2978 21.1436 13.2857 22.4578 14.0078L30.4344 18.3906C31.1585 18.7885 31.1585 19.8086 30.4344 20.2065L22.4578 24.5893C21.1436 25.3114 19.5371 25.2993 18.2344 24.5575L10.5796 20.1986C9.87449 19.797 9.87449 18.8001 10.5796 18.3985L18.2344 14.0396Z" fill="white"/>
<defs>
<linearGradient id="paint0_linear_455_12" x1="22.548" y1="14.8449" x2="8.63612" y2="22.4675" gradientUnits="userSpaceOnUse">
<stop stop-color="white" stop-opacity="0.475466"/>
<stop offset="1" stop-color="white" stop-opacity="0.272734"/>
</linearGradient>
<linearGradient id="paint1_linear_455_12" x1="24.9198" y1="15.7196" x2="13.6512" y2="22.4526" gradientUnits="userSpaceOnUse">
<stop stop-color="white" stop-opacity="0.200771"/>
<stop offset="1" stop-color="white" stop-opacity="0.697855"/>
</linearGradient>
</defs>
</svg>
