<svg width="140" height="46" viewBox="0 0 140 46" fill="none" xmlns="http://www.w3.org/2000/svg">
<path d="M56.8651 33V14.0909H64.1037C65.4702 14.0909 66.6058 14.3063 67.5107 14.7372C68.4216 15.1619 69.1018 15.7436 69.5511 16.4822C70.0066 17.2209 70.2344 18.058 70.2344 18.9936C70.2344 19.763 70.0866 20.4216 69.7912 20.9695C69.4957 21.5111 69.0987 21.9512 68.6001 22.2898C68.1016 22.6283 67.5445 22.8714 66.929 23.0192V23.2038C67.5999 23.2408 68.2431 23.447 68.8587 23.8224C69.4804 24.1918 69.9882 24.715 70.3821 25.392C70.776 26.0691 70.973 26.8878 70.973 27.848C70.973 28.8267 70.736 29.7069 70.2621 30.4886C69.7881 31.2642 69.0741 31.8767 68.12 32.326C67.166 32.7753 65.9657 33 64.5192 33H56.8651ZM60.2905 30.1378H63.9744C65.2178 30.1378 66.1134 29.9008 66.6612 29.4268C67.2152 28.9467 67.4922 28.3312 67.4922 27.5803C67.4922 27.0201 67.3537 26.5154 67.0767 26.0661C66.7997 25.6106 66.4058 25.2536 65.8949 24.995C65.384 24.7304 64.7746 24.598 64.0668 24.598H60.2905V30.1378ZM60.2905 22.1328H63.679C64.2699 22.1328 64.8023 22.0251 65.2763 21.8097C65.7502 21.5881 66.1226 21.2772 66.3935 20.8771C66.6705 20.4709 66.8089 19.9908 66.8089 19.4368C66.8089 18.7043 66.5504 18.1011 66.0334 17.6271C65.5225 17.1532 64.7623 16.9162 63.7528 16.9162H60.2905V22.1328ZM77.1475 24.6903V33H73.8052V18.8182H76.9998V21.228H77.166C77.4922 20.4339 78.0124 19.803 78.7264 19.3352C79.4466 18.8674 80.336 18.6335 81.3947 18.6335C82.3734 18.6335 83.2259 18.8428 83.9522 19.2614C84.6847 19.6799 85.251 20.2862 85.6511 21.0803C86.0574 21.8743 86.2574 22.8376 86.2512 23.9702V33H82.9089V24.4872C82.9089 23.5393 82.6627 22.7976 82.1703 22.2621C81.684 21.7266 81.01 21.4588 80.1483 21.4588C79.5635 21.4588 79.0434 21.5881 78.5879 21.8466C78.1386 22.099 77.7846 22.4652 77.5261 22.9453C77.2737 23.4254 77.1475 24.0071 77.1475 24.6903ZM89.649 33V18.8182H92.9913V33H89.649ZM91.3294 16.8054C90.8 16.8054 90.3445 16.63 89.9629 16.2791C89.5813 15.9221 89.3904 15.4943 89.3904 14.9957C89.3904 14.491 89.5813 14.0632 89.9629 13.7124C90.3445 13.3553 90.8 13.1768 91.3294 13.1768C91.8649 13.1768 92.3204 13.3553 92.6958 13.7124C93.0775 14.0632 93.2683 14.491 93.2683 14.9957C93.2683 15.4943 93.0775 15.9221 92.6958 16.2791C92.3204 16.63 91.8649 16.8054 91.3294 16.8054ZM102.614 33.277C101.199 33.277 99.983 32.9661 98.9673 32.3445C97.9579 31.7228 97.1792 30.8641 96.6314 29.7685C96.0897 28.6667 95.8189 27.3987 95.8189 25.9645C95.8189 24.5241 96.0959 23.2531 96.6499 22.1513C97.2038 21.0433 97.9856 20.1816 98.995 19.5661C100.011 18.9444 101.211 18.6335 102.596 18.6335C103.747 18.6335 104.766 18.8459 105.652 19.2706C106.545 19.6892 107.255 20.2831 107.785 21.0526C108.314 21.8158 108.616 22.7083 108.69 23.7301H105.495C105.366 23.0469 105.058 22.4775 104.572 22.022C104.092 21.5604 103.448 21.3295 102.642 21.3295C101.959 21.3295 101.359 21.5142 100.842 21.8835C100.325 22.2467 99.9214 22.7699 99.6321 23.4531C99.349 24.1364 99.2074 24.955 99.2074 25.9091C99.2074 26.8755 99.349 27.7064 99.6321 28.402C99.9152 29.0914 100.312 29.6238 100.823 29.9993C101.34 30.3686 101.946 30.5533 102.642 30.5533C103.134 30.5533 103.575 30.4609 103.962 30.2763C104.356 30.0855 104.686 29.8116 104.95 29.4545C105.215 29.0975 105.397 28.6636 105.495 28.1527H108.69C108.61 29.156 108.314 30.0455 107.803 30.821C107.292 31.5904 106.597 32.1937 105.717 32.6307C104.836 33.0616 103.802 33.277 102.614 33.277ZM113.493 33.2031C112.933 33.2031 112.453 33.0062 112.053 32.6122C111.653 32.2183 111.456 31.7382 111.462 31.1719C111.456 30.6179 111.653 30.1439 112.053 29.75C112.453 29.3561 112.933 29.1591 113.493 29.1591C114.035 29.1591 114.506 29.3561 114.906 29.75C115.312 30.1439 115.518 30.6179 115.524 31.1719C115.518 31.5473 115.42 31.889 115.229 32.1967C115.044 32.5045 114.798 32.7507 114.49 32.9354C114.189 33.1139 113.856 33.2031 113.493 33.2031ZM118.975 33V18.8182H122.317V33H118.975ZM120.656 16.8054C120.126 16.8054 119.671 16.63 119.289 16.2791C118.907 15.9221 118.717 15.4943 118.717 14.9957C118.717 14.491 118.907 14.0632 119.289 13.7124C119.671 13.3553 120.126 13.1768 120.656 13.1768C121.191 13.1768 121.647 13.3553 122.022 13.7124C122.404 14.0632 122.594 14.491 122.594 14.9957C122.594 15.4943 122.404 15.9221 122.022 16.2791C121.647 16.63 121.191 16.8054 120.656 16.8054ZM131.941 33.277C130.556 33.277 129.355 32.9723 128.34 32.3629C127.324 31.7536 126.536 30.901 125.976 29.8054C125.422 28.7098 125.145 27.4295 125.145 25.9645C125.145 24.4995 125.422 23.2161 125.976 22.1143C126.536 21.0125 127.324 20.157 128.34 19.5476C129.355 18.9382 130.556 18.6335 131.941 18.6335C133.325 18.6335 134.526 18.9382 135.541 19.5476C136.557 20.157 137.342 21.0125 137.896 22.1143C138.456 23.2161 138.736 24.4995 138.736 25.9645C138.736 27.4295 138.456 28.7098 137.896 29.8054C137.342 30.901 136.557 31.7536 135.541 32.3629C134.526 32.9723 133.325 33.277 131.941 33.277ZM131.959 30.5994C132.71 30.5994 133.338 30.3932 133.843 29.9808C134.347 29.5623 134.723 29.0021 134.969 28.3004C135.221 27.5987 135.347 26.817 135.347 25.9553C135.347 25.0874 135.221 24.3026 134.969 23.6009C134.723 22.893 134.347 22.3298 133.843 21.9112C133.338 21.4927 132.71 21.2834 131.959 21.2834C131.19 21.2834 130.549 21.4927 130.039 21.9112C129.534 22.3298 129.155 22.893 128.903 23.6009C128.657 24.3026 128.534 25.0874 128.534 25.9553C128.534 26.817 128.657 27.5987 128.903 28.3004C129.155 29.0021 129.534 29.5623 130.039 29.9808C130.549 30.3932 131.19 30.5994 131.959 30.5994Z" fill="white"/>
<path fill-rule="evenodd" clip-rule="evenodd" d="M15.432 2.77989C18.4849 1.05481 22.2183 1.05481 25.2712 2.77989L35.6228 8.62922C38.762 10.4031 40.7032 13.7296 40.7032 17.3354V28.6646C40.7032 32.2703 38.762 35.5969 35.6228 37.3708L25.2712 43.2201C22.2183 44.9452 18.4849 44.9452 15.432 43.2201L5.08043 37.3708C1.94118 35.5969 0 32.2704 0 28.6646V17.3354C0 13.7296 1.94118 10.4031 5.08043 8.62922L15.432 2.77989Z" fill="#0084FF"/>
<path fill-rule="evenodd" clip-rule="evenodd" d="M18.2353 22.2198C19.538 21.478 21.1445 21.4659 22.4587 22.188L30.4353 26.5708C31.1594 26.9687 31.1594 27.9889 30.4353 28.3867L22.4587 32.7696C21.1445 33.4917 19.538 33.4796 18.2353 32.7378L10.5805 28.3788C9.87535 27.9773 9.87535 26.9803 10.5805 26.5788L18.2353 22.2198Z" fill="white"/>
<g opacity="0.900359" filter="url(#filter0_b_11_175933)">
<path fill-rule="evenodd" clip-rule="evenodd" d="M18.2353 22.1095C19.538 21.3677 21.1445 21.3556 22.4587 22.0777L30.4353 26.4605C31.1594 26.8583 31.1594 27.8785 30.4353 28.2764L22.4587 32.6592C21.1445 33.3813 19.538 33.3692 18.2353 32.6274L10.5805 28.2684C9.87535 27.8669 9.87535 26.87 10.5805 26.4684L18.2353 22.1095Z" fill="url(#paint0_linear_11_175933)"/>
</g>
<path fill-rule="evenodd" clip-rule="evenodd" d="M18.2353 18.207C19.538 17.4652 21.1445 17.4531 22.4587 18.1752L30.4353 22.558C31.1594 22.9559 31.1594 23.9761 30.4353 24.3739L22.4587 28.7567C21.1445 29.4788 19.538 29.4667 18.2353 28.7249L10.5805 24.366C9.87535 23.9644 9.87535 22.9675 10.5805 22.566L18.2353 18.207Z" fill="white"/>
<g filter="url(#filter1_b_11_175933)">
<path fill-rule="evenodd" clip-rule="evenodd" d="M18.2353 18.0744C19.538 17.3326 21.1445 17.3205 22.4587 18.0426L30.4353 22.4254C31.1594 22.8233 31.1594 23.8435 30.4353 24.2414L22.4587 28.6242C21.1445 29.3463 19.538 29.3342 18.2353 28.5924L10.5805 24.2334C9.87535 23.8319 9.87535 22.8349 10.5805 22.4334L18.2353 18.0744Z" fill="url(#paint1_linear_11_175933)"/>
</g>
<path fill-rule="evenodd" clip-rule="evenodd" d="M18.2353 14.0393C19.538 13.2975 21.1445 13.2854 22.4587 14.0075L30.4353 18.3903C31.1594 18.7882 31.1594 19.8083 30.4353 20.2062L22.4587 24.589C21.1445 25.3111 19.538 25.299 18.2353 24.5572L10.5805 20.1983C9.87535 19.7967 9.87535 18.7998 10.5805 18.3982L18.2353 14.0393Z" fill="white"/>
<defs>
<filter id="filter0_b_11_175933" x="-23.9269" y="-12.4341" width="88.8837" height="79.605" filterUnits="userSpaceOnUse" color-interpolation-filters="sRGB">
<feFlood flood-opacity="0" result="BackgroundImageFix"/>
<feGaussianBlur in="BackgroundImageFix" stdDeviation="16.9893"/>
<feComposite in2="SourceAlpha" operator="in" result="effect1_backgroundBlur_11_175933"/>
<feBlend mode="normal" in="SourceGraphic" in2="effect1_backgroundBlur_11_175933" result="shape"/>
</filter>
<filter id="filter1_b_11_175933" x="-23.9269" y="-16.4691" width="88.8837" height="79.605" filterUnits="userSpaceOnUse" color-interpolation-filters="sRGB">
<feFlood flood-opacity="0" result="BackgroundImageFix"/>
<feGaussianBlur in="BackgroundImageFix" stdDeviation="16.9893"/>
<feComposite in2="SourceAlpha" operator="in" result="effect1_backgroundBlur_11_175933"/>
<feBlend mode="normal" in="SourceGraphic" in2="effect1_backgroundBlur_11_175933" result="shape"/>
</filter>
<linearGradient id="paint0_linear_11_175933" x1="22.5489" y1="14.8445" x2="8.63698" y2="22.4671" gradientUnits="userSpaceOnUse">
<stop stop-color="white" stop-opacity="0.475466"/>
<stop offset="1" stop-color="white" stop-opacity="0.272734"/>
</linearGradient>
<linearGradient id="paint1_linear_11_175933" x1="24.9207" y1="15.7192" x2="13.6521" y2="22.4522" gradientUnits="userSpaceOnUse">
<stop stop-color="white" stop-opacity="0.200771"/>
<stop offset="1" stop-color="white" stop-opacity="0.697855"/>
</linearGradient>
</defs>
</svg>
